<mxfile host="app.diagrams.net" modified="2024-07-08T05:57:03.022Z" agent="Mozilla/5.0 (X11; Linux x86_64; rv:127.0) Gecko/20100101 Firefox/127.0" etag="2kOZX4VYJsSyQUwFr1Cg" version="24.6.4" type="device">
  <diagram id="C5RBs43oDa-KdzZeNtuy" name="Page-1">
    <mxGraphModel dx="1421" dy="884" grid="1" gridSize="10" guides="1" tooltips="1" connect="1" arrows="1" fold="1" page="1" pageScale="1" pageWidth="827" pageHeight="1169" math="0" shadow="0">
      <root>
        <mxCell id="WIyWlLk6GJQsqaUBKTNV-0" />
        <mxCell id="WIyWlLk6GJQsqaUBKTNV-1" parent="WIyWlLk6GJQsqaUBKTNV-0" />
        <mxCell id="pGIMNmACJ1Vb4tNI5r7O-77" style="edgeStyle=orthogonalEdgeStyle;rounded=0;orthogonalLoop=1;jettySize=auto;html=1;entryX=0.5;entryY=0;entryDx=0;entryDy=0;" edge="1" parent="WIyWlLk6GJQsqaUBKTNV-1" source="WIyWlLk6GJQsqaUBKTNV-10" target="pGIMNmACJ1Vb4tNI5r7O-69">
          <mxGeometry relative="1" as="geometry" />
        </mxCell>
        <mxCell id="pGIMNmACJ1Vb4tNI5r7O-78" style="edgeStyle=orthogonalEdgeStyle;rounded=0;orthogonalLoop=1;jettySize=auto;html=1;entryX=0.5;entryY=0;entryDx=0;entryDy=0;" edge="1" parent="WIyWlLk6GJQsqaUBKTNV-1" source="WIyWlLk6GJQsqaUBKTNV-10" target="pGIMNmACJ1Vb4tNI5r7O-61">
          <mxGeometry relative="1" as="geometry" />
        </mxCell>
        <mxCell id="WIyWlLk6GJQsqaUBKTNV-10" value="fork()" style="rhombus;whiteSpace=wrap;html=1;shadow=0;fontFamily=Helvetica;fontSize=12;align=center;strokeWidth=1;spacing=6;spacingTop=-4;" parent="WIyWlLk6GJQsqaUBKTNV-1" vertex="1">
          <mxGeometry x="20" y="440" width="100" height="80" as="geometry" />
        </mxCell>
        <mxCell id="pGIMNmACJ1Vb4tNI5r7O-79" style="edgeStyle=orthogonalEdgeStyle;rounded=0;orthogonalLoop=1;jettySize=auto;html=1;entryX=0.5;entryY=0;entryDx=0;entryDy=0;" edge="1" parent="WIyWlLk6GJQsqaUBKTNV-1" source="pGIMNmACJ1Vb4tNI5r7O-22" target="pGIMNmACJ1Vb4tNI5r7O-33">
          <mxGeometry relative="1" as="geometry" />
        </mxCell>
        <mxCell id="pGIMNmACJ1Vb4tNI5r7O-22" value="2x pipe() " style="rhombus;whiteSpace=wrap;html=1;shadow=0;fontFamily=Helvetica;fontSize=12;align=center;strokeWidth=1;spacing=6;spacingTop=-4;" vertex="1" parent="WIyWlLk6GJQsqaUBKTNV-1">
          <mxGeometry x="20" y="130" width="100" height="80" as="geometry" />
        </mxCell>
        <mxCell id="pGIMNmACJ1Vb4tNI5r7O-60" style="edgeStyle=orthogonalEdgeStyle;rounded=0;orthogonalLoop=1;jettySize=auto;html=1;entryX=0.5;entryY=0;entryDx=0;entryDy=0;" edge="1" parent="WIyWlLk6GJQsqaUBKTNV-1" source="pGIMNmACJ1Vb4tNI5r7O-33" target="WIyWlLk6GJQsqaUBKTNV-10">
          <mxGeometry relative="1" as="geometry" />
        </mxCell>
        <mxCell id="pGIMNmACJ1Vb4tNI5r7O-33" value="Parent Process" style="swimlane;fontStyle=0;childLayout=stackLayout;horizontal=1;startSize=30;horizontalStack=0;resizeParent=1;resizeParentMax=0;resizeLast=0;collapsible=1;marginBottom=0;whiteSpace=wrap;html=1;" vertex="1" parent="WIyWlLk6GJQsqaUBKTNV-1">
          <mxGeometry x="15" y="240" width="110" height="170" as="geometry">
            <mxRectangle x="444" y="170" width="120" height="30" as="alternateBounds" />
          </mxGeometry>
        </mxCell>
        <mxCell id="pGIMNmACJ1Vb4tNI5r7O-34" value="&lt;div align=&quot;right&quot;&gt;0: STDIN&lt;br&gt;&lt;/div&gt;" style="text;strokeColor=none;fillColor=none;align=left;verticalAlign=middle;spacingLeft=4;spacingRight=4;overflow=hidden;points=[[0,0.5],[1,0.5]];portConstraint=eastwest;rotatable=0;whiteSpace=wrap;html=1;" vertex="1" parent="pGIMNmACJ1Vb4tNI5r7O-33">
          <mxGeometry y="30" width="110" height="20" as="geometry" />
        </mxCell>
        <mxCell id="pGIMNmACJ1Vb4tNI5r7O-36" value="1: STDOUT" style="text;strokeColor=none;fillColor=none;align=left;verticalAlign=middle;spacingLeft=4;spacingRight=4;overflow=hidden;points=[[0,0.5],[1,0.5]];portConstraint=eastwest;rotatable=0;whiteSpace=wrap;html=1;" vertex="1" parent="pGIMNmACJ1Vb4tNI5r7O-33">
          <mxGeometry y="50" width="110" height="20" as="geometry" />
        </mxCell>
        <mxCell id="pGIMNmACJ1Vb4tNI5r7O-37" value="2: STDERR" style="text;strokeColor=none;fillColor=none;align=left;verticalAlign=middle;spacingLeft=4;spacingRight=4;overflow=hidden;points=[[0,0.5],[1,0.5]];portConstraint=eastwest;rotatable=0;whiteSpace=wrap;html=1;" vertex="1" parent="pGIMNmACJ1Vb4tNI5r7O-33">
          <mxGeometry y="70" width="110" height="20" as="geometry" />
        </mxCell>
        <mxCell id="pGIMNmACJ1Vb4tNI5r7O-43" value="3: fdToGrep[0]" style="text;strokeColor=none;fillColor=none;align=left;verticalAlign=middle;spacingLeft=4;spacingRight=4;overflow=hidden;points=[[0,0.5],[1,0.5]];portConstraint=eastwest;rotatable=0;whiteSpace=wrap;html=1;" vertex="1" parent="pGIMNmACJ1Vb4tNI5r7O-33">
          <mxGeometry y="90" width="110" height="20" as="geometry" />
        </mxCell>
        <mxCell id="pGIMNmACJ1Vb4tNI5r7O-49" value="4: fdToGrep[1]" style="text;strokeColor=none;fillColor=none;align=left;verticalAlign=middle;spacingLeft=4;spacingRight=4;overflow=hidden;points=[[0,0.5],[1,0.5]];portConstraint=eastwest;rotatable=0;whiteSpace=wrap;html=1;" vertex="1" parent="pGIMNmACJ1Vb4tNI5r7O-33">
          <mxGeometry y="110" width="110" height="20" as="geometry" />
        </mxCell>
        <mxCell id="pGIMNmACJ1Vb4tNI5r7O-56" value="5: fdToWc[0]" style="text;strokeColor=none;fillColor=none;align=left;verticalAlign=middle;spacingLeft=4;spacingRight=4;overflow=hidden;points=[[0,0.5],[1,0.5]];portConstraint=eastwest;rotatable=0;whiteSpace=wrap;html=1;" vertex="1" parent="pGIMNmACJ1Vb4tNI5r7O-33">
          <mxGeometry y="130" width="110" height="20" as="geometry" />
        </mxCell>
        <mxCell id="pGIMNmACJ1Vb4tNI5r7O-57" value="6: fdToWc[1]" style="text;strokeColor=none;fillColor=none;align=left;verticalAlign=middle;spacingLeft=4;spacingRight=4;overflow=hidden;points=[[0,0.5],[1,0.5]];portConstraint=eastwest;rotatable=0;whiteSpace=wrap;html=1;" vertex="1" parent="pGIMNmACJ1Vb4tNI5r7O-33">
          <mxGeometry y="150" width="110" height="20" as="geometry" />
        </mxCell>
        <mxCell id="pGIMNmACJ1Vb4tNI5r7O-42" style="edgeStyle=orthogonalEdgeStyle;rounded=0;orthogonalLoop=1;jettySize=auto;html=1;entryX=0.5;entryY=0;entryDx=0;entryDy=0;" edge="1" parent="WIyWlLk6GJQsqaUBKTNV-1" source="pGIMNmACJ1Vb4tNI5r7O-38" target="pGIMNmACJ1Vb4tNI5r7O-22">
          <mxGeometry relative="1" as="geometry" />
        </mxCell>
        <mxCell id="pGIMNmACJ1Vb4tNI5r7O-38" value="Parent Process" style="swimlane;fontStyle=0;childLayout=stackLayout;horizontal=1;startSize=30;horizontalStack=0;resizeParent=1;resizeParentMax=0;resizeLast=0;collapsible=1;marginBottom=0;whiteSpace=wrap;html=1;" vertex="1" parent="WIyWlLk6GJQsqaUBKTNV-1">
          <mxGeometry x="15" y="10" width="110" height="90" as="geometry">
            <mxRectangle x="444" y="170" width="120" height="30" as="alternateBounds" />
          </mxGeometry>
        </mxCell>
        <mxCell id="pGIMNmACJ1Vb4tNI5r7O-39" value="&lt;div align=&quot;right&quot;&gt;0: STDIN&lt;br&gt;&lt;/div&gt;" style="text;strokeColor=none;fillColor=none;align=left;verticalAlign=middle;spacingLeft=4;spacingRight=4;overflow=hidden;points=[[0,0.5],[1,0.5]];portConstraint=eastwest;rotatable=0;whiteSpace=wrap;html=1;" vertex="1" parent="pGIMNmACJ1Vb4tNI5r7O-38">
          <mxGeometry y="30" width="110" height="20" as="geometry" />
        </mxCell>
        <mxCell id="pGIMNmACJ1Vb4tNI5r7O-40" value="1: STDOUT" style="text;strokeColor=none;fillColor=none;align=left;verticalAlign=middle;spacingLeft=4;spacingRight=4;overflow=hidden;points=[[0,0.5],[1,0.5]];portConstraint=eastwest;rotatable=0;whiteSpace=wrap;html=1;" vertex="1" parent="pGIMNmACJ1Vb4tNI5r7O-38">
          <mxGeometry y="50" width="110" height="20" as="geometry" />
        </mxCell>
        <mxCell id="pGIMNmACJ1Vb4tNI5r7O-41" value="2: STDERR" style="text;strokeColor=none;fillColor=none;align=left;verticalAlign=middle;spacingLeft=4;spacingRight=4;overflow=hidden;points=[[0,0.5],[1,0.5]];portConstraint=eastwest;rotatable=0;whiteSpace=wrap;html=1;" vertex="1" parent="pGIMNmACJ1Vb4tNI5r7O-38">
          <mxGeometry y="70" width="110" height="20" as="geometry" />
        </mxCell>
        <mxCell id="pGIMNmACJ1Vb4tNI5r7O-61" value="Parent Process" style="swimlane;fontStyle=0;childLayout=stackLayout;horizontal=1;startSize=30;horizontalStack=0;resizeParent=1;resizeParentMax=0;resizeLast=0;collapsible=1;marginBottom=0;whiteSpace=wrap;html=1;" vertex="1" parent="WIyWlLk6GJQsqaUBKTNV-1">
          <mxGeometry x="15" y="540" width="110" height="170" as="geometry">
            <mxRectangle x="444" y="170" width="120" height="30" as="alternateBounds" />
          </mxGeometry>
        </mxCell>
        <mxCell id="pGIMNmACJ1Vb4tNI5r7O-62" value="&lt;div align=&quot;right&quot;&gt;0: STDIN&lt;br&gt;&lt;/div&gt;" style="text;strokeColor=none;fillColor=none;align=left;verticalAlign=middle;spacingLeft=4;spacingRight=4;overflow=hidden;points=[[0,0.5],[1,0.5]];portConstraint=eastwest;rotatable=0;whiteSpace=wrap;html=1;" vertex="1" parent="pGIMNmACJ1Vb4tNI5r7O-61">
          <mxGeometry y="30" width="110" height="20" as="geometry" />
        </mxCell>
        <mxCell id="pGIMNmACJ1Vb4tNI5r7O-63" value="1: STDOUT" style="text;strokeColor=none;fillColor=none;align=left;verticalAlign=middle;spacingLeft=4;spacingRight=4;overflow=hidden;points=[[0,0.5],[1,0.5]];portConstraint=eastwest;rotatable=0;whiteSpace=wrap;html=1;" vertex="1" parent="pGIMNmACJ1Vb4tNI5r7O-61">
          <mxGeometry y="50" width="110" height="20" as="geometry" />
        </mxCell>
        <mxCell id="pGIMNmACJ1Vb4tNI5r7O-64" value="2: STDERR" style="text;strokeColor=none;fillColor=none;align=left;verticalAlign=middle;spacingLeft=4;spacingRight=4;overflow=hidden;points=[[0,0.5],[1,0.5]];portConstraint=eastwest;rotatable=0;whiteSpace=wrap;html=1;" vertex="1" parent="pGIMNmACJ1Vb4tNI5r7O-61">
          <mxGeometry y="70" width="110" height="20" as="geometry" />
        </mxCell>
        <mxCell id="pGIMNmACJ1Vb4tNI5r7O-65" value="3: fdToGrep[0]" style="text;strokeColor=none;fillColor=none;align=left;verticalAlign=middle;spacingLeft=4;spacingRight=4;overflow=hidden;points=[[0,0.5],[1,0.5]];portConstraint=eastwest;rotatable=0;whiteSpace=wrap;html=1;" vertex="1" parent="pGIMNmACJ1Vb4tNI5r7O-61">
          <mxGeometry y="90" width="110" height="20" as="geometry" />
        </mxCell>
        <mxCell id="pGIMNmACJ1Vb4tNI5r7O-66" value="4: fdToGrep[1]" style="text;strokeColor=none;fillColor=none;align=left;verticalAlign=middle;spacingLeft=4;spacingRight=4;overflow=hidden;points=[[0,0.5],[1,0.5]];portConstraint=eastwest;rotatable=0;whiteSpace=wrap;html=1;" vertex="1" parent="pGIMNmACJ1Vb4tNI5r7O-61">
          <mxGeometry y="110" width="110" height="20" as="geometry" />
        </mxCell>
        <mxCell id="pGIMNmACJ1Vb4tNI5r7O-67" value="5: fdToWc[0]" style="text;strokeColor=none;fillColor=none;align=left;verticalAlign=middle;spacingLeft=4;spacingRight=4;overflow=hidden;points=[[0,0.5],[1,0.5]];portConstraint=eastwest;rotatable=0;whiteSpace=wrap;html=1;" vertex="1" parent="pGIMNmACJ1Vb4tNI5r7O-61">
          <mxGeometry y="130" width="110" height="20" as="geometry" />
        </mxCell>
        <mxCell id="pGIMNmACJ1Vb4tNI5r7O-68" value="6: fdToWc[1]" style="text;strokeColor=none;fillColor=none;align=left;verticalAlign=middle;spacingLeft=4;spacingRight=4;overflow=hidden;points=[[0,0.5],[1,0.5]];portConstraint=eastwest;rotatable=0;whiteSpace=wrap;html=1;" vertex="1" parent="pGIMNmACJ1Vb4tNI5r7O-61">
          <mxGeometry y="150" width="110" height="20" as="geometry" />
        </mxCell>
        <mxCell id="pGIMNmACJ1Vb4tNI5r7O-101" style="edgeStyle=orthogonalEdgeStyle;rounded=0;orthogonalLoop=1;jettySize=auto;html=1;entryX=0.5;entryY=0;entryDx=0;entryDy=0;" edge="1" parent="WIyWlLk6GJQsqaUBKTNV-1" source="pGIMNmACJ1Vb4tNI5r7O-69" target="pGIMNmACJ1Vb4tNI5r7O-84">
          <mxGeometry relative="1" as="geometry" />
        </mxCell>
        <mxCell id="pGIMNmACJ1Vb4tNI5r7O-69" value="Child Process" style="swimlane;fontStyle=0;childLayout=stackLayout;horizontal=1;startSize=30;horizontalStack=0;resizeParent=1;resizeParentMax=0;resizeLast=0;collapsible=1;marginBottom=0;whiteSpace=wrap;html=1;" vertex="1" parent="WIyWlLk6GJQsqaUBKTNV-1">
          <mxGeometry x="140" y="540" width="110" height="170" as="geometry">
            <mxRectangle x="444" y="170" width="120" height="30" as="alternateBounds" />
          </mxGeometry>
        </mxCell>
        <mxCell id="pGIMNmACJ1Vb4tNI5r7O-70" value="&lt;div align=&quot;right&quot;&gt;0: STDIN&lt;br&gt;&lt;/div&gt;" style="text;strokeColor=none;fillColor=none;align=left;verticalAlign=middle;spacingLeft=4;spacingRight=4;overflow=hidden;points=[[0,0.5],[1,0.5]];portConstraint=eastwest;rotatable=0;whiteSpace=wrap;html=1;" vertex="1" parent="pGIMNmACJ1Vb4tNI5r7O-69">
          <mxGeometry y="30" width="110" height="20" as="geometry" />
        </mxCell>
        <mxCell id="pGIMNmACJ1Vb4tNI5r7O-71" value="1: STDOUT" style="text;strokeColor=none;fillColor=none;align=left;verticalAlign=middle;spacingLeft=4;spacingRight=4;overflow=hidden;points=[[0,0.5],[1,0.5]];portConstraint=eastwest;rotatable=0;whiteSpace=wrap;html=1;" vertex="1" parent="pGIMNmACJ1Vb4tNI5r7O-69">
          <mxGeometry y="50" width="110" height="20" as="geometry" />
        </mxCell>
        <mxCell id="pGIMNmACJ1Vb4tNI5r7O-72" value="2: STDERR" style="text;strokeColor=none;fillColor=none;align=left;verticalAlign=middle;spacingLeft=4;spacingRight=4;overflow=hidden;points=[[0,0.5],[1,0.5]];portConstraint=eastwest;rotatable=0;whiteSpace=wrap;html=1;" vertex="1" parent="pGIMNmACJ1Vb4tNI5r7O-69">
          <mxGeometry y="70" width="110" height="20" as="geometry" />
        </mxCell>
        <mxCell id="pGIMNmACJ1Vb4tNI5r7O-73" value="3: fdToGrep[0]" style="text;strokeColor=none;fillColor=none;align=left;verticalAlign=middle;spacingLeft=4;spacingRight=4;overflow=hidden;points=[[0,0.5],[1,0.5]];portConstraint=eastwest;rotatable=0;whiteSpace=wrap;html=1;" vertex="1" parent="pGIMNmACJ1Vb4tNI5r7O-69">
          <mxGeometry y="90" width="110" height="20" as="geometry" />
        </mxCell>
        <mxCell id="pGIMNmACJ1Vb4tNI5r7O-74" value="4: fdToGrep[1]" style="text;strokeColor=none;fillColor=none;align=left;verticalAlign=middle;spacingLeft=4;spacingRight=4;overflow=hidden;points=[[0,0.5],[1,0.5]];portConstraint=eastwest;rotatable=0;whiteSpace=wrap;html=1;" vertex="1" parent="pGIMNmACJ1Vb4tNI5r7O-69">
          <mxGeometry y="110" width="110" height="20" as="geometry" />
        </mxCell>
        <mxCell id="pGIMNmACJ1Vb4tNI5r7O-75" value="5: fdToWc[0]" style="text;strokeColor=none;fillColor=none;align=left;verticalAlign=middle;spacingLeft=4;spacingRight=4;overflow=hidden;points=[[0,0.5],[1,0.5]];portConstraint=eastwest;rotatable=0;whiteSpace=wrap;html=1;" vertex="1" parent="pGIMNmACJ1Vb4tNI5r7O-69">
          <mxGeometry y="130" width="110" height="20" as="geometry" />
        </mxCell>
        <mxCell id="pGIMNmACJ1Vb4tNI5r7O-76" value="6: fdToWc[1]" style="text;strokeColor=none;fillColor=none;align=left;verticalAlign=middle;spacingLeft=4;spacingRight=4;overflow=hidden;points=[[0,0.5],[1,0.5]];portConstraint=eastwest;rotatable=0;whiteSpace=wrap;html=1;" vertex="1" parent="pGIMNmACJ1Vb4tNI5r7O-69">
          <mxGeometry y="150" width="110" height="20" as="geometry" />
        </mxCell>
        <mxCell id="pGIMNmACJ1Vb4tNI5r7O-82" style="edgeStyle=orthogonalEdgeStyle;rounded=0;orthogonalLoop=1;jettySize=auto;html=1;entryX=0.5;entryY=0;entryDx=0;entryDy=0;" edge="1" parent="WIyWlLk6GJQsqaUBKTNV-1" source="pGIMNmACJ1Vb4tNI5r7O-84" target="pGIMNmACJ1Vb4tNI5r7O-93">
          <mxGeometry relative="1" as="geometry" />
        </mxCell>
        <mxCell id="pGIMNmACJ1Vb4tNI5r7O-83" style="edgeStyle=orthogonalEdgeStyle;rounded=0;orthogonalLoop=1;jettySize=auto;html=1;entryX=0.5;entryY=0;entryDx=0;entryDy=0;" edge="1" parent="WIyWlLk6GJQsqaUBKTNV-1" source="pGIMNmACJ1Vb4tNI5r7O-84" target="pGIMNmACJ1Vb4tNI5r7O-85">
          <mxGeometry relative="1" as="geometry" />
        </mxCell>
        <mxCell id="pGIMNmACJ1Vb4tNI5r7O-84" value="fork()" style="rhombus;whiteSpace=wrap;html=1;shadow=0;fontFamily=Helvetica;fontSize=12;align=center;strokeWidth=1;spacing=6;spacingTop=-4;" vertex="1" parent="WIyWlLk6GJQsqaUBKTNV-1">
          <mxGeometry x="145" y="730" width="100" height="80" as="geometry" />
        </mxCell>
        <mxCell id="pGIMNmACJ1Vb4tNI5r7O-139" style="edgeStyle=orthogonalEdgeStyle;rounded=0;orthogonalLoop=1;jettySize=auto;html=1;entryX=0.5;entryY=0;entryDx=0;entryDy=0;" edge="1" parent="WIyWlLk6GJQsqaUBKTNV-1" source="pGIMNmACJ1Vb4tNI5r7O-85" target="pGIMNmACJ1Vb4tNI5r7O-137">
          <mxGeometry relative="1" as="geometry" />
        </mxCell>
        <mxCell id="pGIMNmACJ1Vb4tNI5r7O-85" value="Child Process" style="swimlane;fontStyle=0;childLayout=stackLayout;horizontal=1;startSize=30;horizontalStack=0;resizeParent=1;resizeParentMax=0;resizeLast=0;collapsible=1;marginBottom=0;whiteSpace=wrap;html=1;" vertex="1" parent="WIyWlLk6GJQsqaUBKTNV-1">
          <mxGeometry x="140" y="830" width="110" height="170" as="geometry">
            <mxRectangle x="444" y="170" width="120" height="30" as="alternateBounds" />
          </mxGeometry>
        </mxCell>
        <mxCell id="pGIMNmACJ1Vb4tNI5r7O-86" value="&lt;div align=&quot;right&quot;&gt;0: STDIN&lt;br&gt;&lt;/div&gt;" style="text;strokeColor=none;fillColor=none;align=left;verticalAlign=middle;spacingLeft=4;spacingRight=4;overflow=hidden;points=[[0,0.5],[1,0.5]];portConstraint=eastwest;rotatable=0;whiteSpace=wrap;html=1;" vertex="1" parent="pGIMNmACJ1Vb4tNI5r7O-85">
          <mxGeometry y="30" width="110" height="20" as="geometry" />
        </mxCell>
        <mxCell id="pGIMNmACJ1Vb4tNI5r7O-87" value="1: STDOUT" style="text;strokeColor=none;fillColor=none;align=left;verticalAlign=middle;spacingLeft=4;spacingRight=4;overflow=hidden;points=[[0,0.5],[1,0.5]];portConstraint=eastwest;rotatable=0;whiteSpace=wrap;html=1;" vertex="1" parent="pGIMNmACJ1Vb4tNI5r7O-85">
          <mxGeometry y="50" width="110" height="20" as="geometry" />
        </mxCell>
        <mxCell id="pGIMNmACJ1Vb4tNI5r7O-88" value="2: STDERR" style="text;strokeColor=none;fillColor=none;align=left;verticalAlign=middle;spacingLeft=4;spacingRight=4;overflow=hidden;points=[[0,0.5],[1,0.5]];portConstraint=eastwest;rotatable=0;whiteSpace=wrap;html=1;" vertex="1" parent="pGIMNmACJ1Vb4tNI5r7O-85">
          <mxGeometry y="70" width="110" height="20" as="geometry" />
        </mxCell>
        <mxCell id="pGIMNmACJ1Vb4tNI5r7O-89" value="3: fdToGrep[0]" style="text;strokeColor=none;fillColor=none;align=left;verticalAlign=middle;spacingLeft=4;spacingRight=4;overflow=hidden;points=[[0,0.5],[1,0.5]];portConstraint=eastwest;rotatable=0;whiteSpace=wrap;html=1;" vertex="1" parent="pGIMNmACJ1Vb4tNI5r7O-85">
          <mxGeometry y="90" width="110" height="20" as="geometry" />
        </mxCell>
        <mxCell id="pGIMNmACJ1Vb4tNI5r7O-90" value="4: fdToGrep[1]" style="text;strokeColor=none;fillColor=none;align=left;verticalAlign=middle;spacingLeft=4;spacingRight=4;overflow=hidden;points=[[0,0.5],[1,0.5]];portConstraint=eastwest;rotatable=0;whiteSpace=wrap;html=1;" vertex="1" parent="pGIMNmACJ1Vb4tNI5r7O-85">
          <mxGeometry y="110" width="110" height="20" as="geometry" />
        </mxCell>
        <mxCell id="pGIMNmACJ1Vb4tNI5r7O-91" value="5: fdToWc[0]" style="text;strokeColor=none;fillColor=none;align=left;verticalAlign=middle;spacingLeft=4;spacingRight=4;overflow=hidden;points=[[0,0.5],[1,0.5]];portConstraint=eastwest;rotatable=0;whiteSpace=wrap;html=1;" vertex="1" parent="pGIMNmACJ1Vb4tNI5r7O-85">
          <mxGeometry y="130" width="110" height="20" as="geometry" />
        </mxCell>
        <mxCell id="pGIMNmACJ1Vb4tNI5r7O-92" value="6: fdToWc[1]" style="text;strokeColor=none;fillColor=none;align=left;verticalAlign=middle;spacingLeft=4;spacingRight=4;overflow=hidden;points=[[0,0.5],[1,0.5]];portConstraint=eastwest;rotatable=0;whiteSpace=wrap;html=1;" vertex="1" parent="pGIMNmACJ1Vb4tNI5r7O-85">
          <mxGeometry y="150" width="110" height="20" as="geometry" />
        </mxCell>
        <mxCell id="pGIMNmACJ1Vb4tNI5r7O-140" style="edgeStyle=orthogonalEdgeStyle;rounded=0;orthogonalLoop=1;jettySize=auto;html=1;entryX=0.5;entryY=0;entryDx=0;entryDy=0;" edge="1" parent="WIyWlLk6GJQsqaUBKTNV-1" source="pGIMNmACJ1Vb4tNI5r7O-93" target="pGIMNmACJ1Vb4tNI5r7O-138">
          <mxGeometry relative="1" as="geometry" />
        </mxCell>
        <mxCell id="pGIMNmACJ1Vb4tNI5r7O-93" value="&lt;div&gt;Grandchild Process&lt;/div&gt;" style="swimlane;fontStyle=0;childLayout=stackLayout;horizontal=1;startSize=30;horizontalStack=0;resizeParent=1;resizeParentMax=0;resizeLast=0;collapsible=1;marginBottom=0;whiteSpace=wrap;html=1;" vertex="1" parent="WIyWlLk6GJQsqaUBKTNV-1">
          <mxGeometry x="265" y="830" width="110" height="170" as="geometry">
            <mxRectangle x="444" y="170" width="120" height="30" as="alternateBounds" />
          </mxGeometry>
        </mxCell>
        <mxCell id="pGIMNmACJ1Vb4tNI5r7O-94" value="&lt;div align=&quot;right&quot;&gt;0: STDIN&lt;br&gt;&lt;/div&gt;" style="text;strokeColor=none;fillColor=none;align=left;verticalAlign=middle;spacingLeft=4;spacingRight=4;overflow=hidden;points=[[0,0.5],[1,0.5]];portConstraint=eastwest;rotatable=0;whiteSpace=wrap;html=1;" vertex="1" parent="pGIMNmACJ1Vb4tNI5r7O-93">
          <mxGeometry y="30" width="110" height="20" as="geometry" />
        </mxCell>
        <mxCell id="pGIMNmACJ1Vb4tNI5r7O-95" value="1: STDOUT" style="text;strokeColor=none;fillColor=none;align=left;verticalAlign=middle;spacingLeft=4;spacingRight=4;overflow=hidden;points=[[0,0.5],[1,0.5]];portConstraint=eastwest;rotatable=0;whiteSpace=wrap;html=1;" vertex="1" parent="pGIMNmACJ1Vb4tNI5r7O-93">
          <mxGeometry y="50" width="110" height="20" as="geometry" />
        </mxCell>
        <mxCell id="pGIMNmACJ1Vb4tNI5r7O-96" value="2: STDERR" style="text;strokeColor=none;fillColor=none;align=left;verticalAlign=middle;spacingLeft=4;spacingRight=4;overflow=hidden;points=[[0,0.5],[1,0.5]];portConstraint=eastwest;rotatable=0;whiteSpace=wrap;html=1;" vertex="1" parent="pGIMNmACJ1Vb4tNI5r7O-93">
          <mxGeometry y="70" width="110" height="20" as="geometry" />
        </mxCell>
        <mxCell id="pGIMNmACJ1Vb4tNI5r7O-97" value="3: fdToGrep[0]" style="text;strokeColor=none;fillColor=none;align=left;verticalAlign=middle;spacingLeft=4;spacingRight=4;overflow=hidden;points=[[0,0.5],[1,0.5]];portConstraint=eastwest;rotatable=0;whiteSpace=wrap;html=1;" vertex="1" parent="pGIMNmACJ1Vb4tNI5r7O-93">
          <mxGeometry y="90" width="110" height="20" as="geometry" />
        </mxCell>
        <mxCell id="pGIMNmACJ1Vb4tNI5r7O-98" value="4: fdToGrep[1]" style="text;strokeColor=none;fillColor=none;align=left;verticalAlign=middle;spacingLeft=4;spacingRight=4;overflow=hidden;points=[[0,0.5],[1,0.5]];portConstraint=eastwest;rotatable=0;whiteSpace=wrap;html=1;" vertex="1" parent="pGIMNmACJ1Vb4tNI5r7O-93">
          <mxGeometry y="110" width="110" height="20" as="geometry" />
        </mxCell>
        <mxCell id="pGIMNmACJ1Vb4tNI5r7O-99" value="5: fdToWc[0]" style="text;strokeColor=none;fillColor=none;align=left;verticalAlign=middle;spacingLeft=4;spacingRight=4;overflow=hidden;points=[[0,0.5],[1,0.5]];portConstraint=eastwest;rotatable=0;whiteSpace=wrap;html=1;" vertex="1" parent="pGIMNmACJ1Vb4tNI5r7O-93">
          <mxGeometry y="130" width="110" height="20" as="geometry" />
        </mxCell>
        <mxCell id="pGIMNmACJ1Vb4tNI5r7O-100" value="6: fdToWc[1]" style="text;strokeColor=none;fillColor=none;align=left;verticalAlign=middle;spacingLeft=4;spacingRight=4;overflow=hidden;points=[[0,0.5],[1,0.5]];portConstraint=eastwest;rotatable=0;whiteSpace=wrap;html=1;" vertex="1" parent="pGIMNmACJ1Vb4tNI5r7O-93">
          <mxGeometry y="150" width="110" height="20" as="geometry" />
        </mxCell>
        <mxCell id="pGIMNmACJ1Vb4tNI5r7O-136" style="edgeStyle=orthogonalEdgeStyle;rounded=0;orthogonalLoop=1;jettySize=auto;html=1;entryX=0.5;entryY=0;entryDx=0;entryDy=0;" edge="1" parent="WIyWlLk6GJQsqaUBKTNV-1" source="pGIMNmACJ1Vb4tNI5r7O-102" target="pGIMNmACJ1Vb4tNI5r7O-135">
          <mxGeometry relative="1" as="geometry" />
        </mxCell>
        <mxCell id="pGIMNmACJ1Vb4tNI5r7O-102" value="Parent Process" style="swimlane;fontStyle=0;childLayout=stackLayout;horizontal=1;startSize=30;horizontalStack=0;resizeParent=1;resizeParentMax=0;resizeLast=0;collapsible=1;marginBottom=0;whiteSpace=wrap;html=1;" vertex="1" parent="WIyWlLk6GJQsqaUBKTNV-1">
          <mxGeometry x="15" y="830" width="110" height="170" as="geometry">
            <mxRectangle x="444" y="170" width="120" height="30" as="alternateBounds" />
          </mxGeometry>
        </mxCell>
        <mxCell id="pGIMNmACJ1Vb4tNI5r7O-103" value="&lt;div align=&quot;right&quot;&gt;0: STDIN&lt;br&gt;&lt;/div&gt;" style="text;strokeColor=none;fillColor=none;align=left;verticalAlign=middle;spacingLeft=4;spacingRight=4;overflow=hidden;points=[[0,0.5],[1,0.5]];portConstraint=eastwest;rotatable=0;whiteSpace=wrap;html=1;" vertex="1" parent="pGIMNmACJ1Vb4tNI5r7O-102">
          <mxGeometry y="30" width="110" height="20" as="geometry" />
        </mxCell>
        <mxCell id="pGIMNmACJ1Vb4tNI5r7O-104" value="1: STDOUT" style="text;strokeColor=none;fillColor=none;align=left;verticalAlign=middle;spacingLeft=4;spacingRight=4;overflow=hidden;points=[[0,0.5],[1,0.5]];portConstraint=eastwest;rotatable=0;whiteSpace=wrap;html=1;" vertex="1" parent="pGIMNmACJ1Vb4tNI5r7O-102">
          <mxGeometry y="50" width="110" height="20" as="geometry" />
        </mxCell>
        <mxCell id="pGIMNmACJ1Vb4tNI5r7O-105" value="2: STDERR" style="text;strokeColor=none;fillColor=none;align=left;verticalAlign=middle;spacingLeft=4;spacingRight=4;overflow=hidden;points=[[0,0.5],[1,0.5]];portConstraint=eastwest;rotatable=0;whiteSpace=wrap;html=1;" vertex="1" parent="pGIMNmACJ1Vb4tNI5r7O-102">
          <mxGeometry y="70" width="110" height="20" as="geometry" />
        </mxCell>
        <mxCell id="pGIMNmACJ1Vb4tNI5r7O-106" value="3: fdToGrep[0]" style="text;strokeColor=none;fillColor=none;align=left;verticalAlign=middle;spacingLeft=4;spacingRight=4;overflow=hidden;points=[[0,0.5],[1,0.5]];portConstraint=eastwest;rotatable=0;whiteSpace=wrap;html=1;" vertex="1" parent="pGIMNmACJ1Vb4tNI5r7O-102">
          <mxGeometry y="90" width="110" height="20" as="geometry" />
        </mxCell>
        <mxCell id="pGIMNmACJ1Vb4tNI5r7O-107" value="4: fdToGrep[1]" style="text;strokeColor=none;fillColor=none;align=left;verticalAlign=middle;spacingLeft=4;spacingRight=4;overflow=hidden;points=[[0,0.5],[1,0.5]];portConstraint=eastwest;rotatable=0;whiteSpace=wrap;html=1;" vertex="1" parent="pGIMNmACJ1Vb4tNI5r7O-102">
          <mxGeometry y="110" width="110" height="20" as="geometry" />
        </mxCell>
        <mxCell id="pGIMNmACJ1Vb4tNI5r7O-108" value="5: fdToWc[0]" style="text;strokeColor=none;fillColor=none;align=left;verticalAlign=middle;spacingLeft=4;spacingRight=4;overflow=hidden;points=[[0,0.5],[1,0.5]];portConstraint=eastwest;rotatable=0;whiteSpace=wrap;html=1;" vertex="1" parent="pGIMNmACJ1Vb4tNI5r7O-102">
          <mxGeometry y="130" width="110" height="20" as="geometry" />
        </mxCell>
        <mxCell id="pGIMNmACJ1Vb4tNI5r7O-109" value="6: fdToWc[1]" style="text;strokeColor=none;fillColor=none;align=left;verticalAlign=middle;spacingLeft=4;spacingRight=4;overflow=hidden;points=[[0,0.5],[1,0.5]];portConstraint=eastwest;rotatable=0;whiteSpace=wrap;html=1;" vertex="1" parent="pGIMNmACJ1Vb4tNI5r7O-102">
          <mxGeometry y="150" width="110" height="20" as="geometry" />
        </mxCell>
        <mxCell id="pGIMNmACJ1Vb4tNI5r7O-110" value="" style="endArrow=none;dashed=1;html=1;rounded=0;entryX=0.5;entryY=0;entryDx=0;entryDy=0;exitX=0.501;exitY=1.129;exitDx=0;exitDy=0;exitPerimeter=0;" edge="1" parent="WIyWlLk6GJQsqaUBKTNV-1" source="pGIMNmACJ1Vb4tNI5r7O-68" target="pGIMNmACJ1Vb4tNI5r7O-102">
          <mxGeometry width="50" height="50" relative="1" as="geometry">
            <mxPoint x="60" y="795" as="sourcePoint" />
            <mxPoint x="110" y="745" as="targetPoint" />
          </mxGeometry>
        </mxCell>
        <mxCell id="pGIMNmACJ1Vb4tNI5r7O-177" style="edgeStyle=orthogonalEdgeStyle;rounded=0;orthogonalLoop=1;jettySize=auto;html=1;entryX=0.5;entryY=0;entryDx=0;entryDy=0;" edge="1" parent="WIyWlLk6GJQsqaUBKTNV-1" source="pGIMNmACJ1Vb4tNI5r7O-111" target="pGIMNmACJ1Vb4tNI5r7O-173">
          <mxGeometry relative="1" as="geometry" />
        </mxCell>
        <mxCell id="pGIMNmACJ1Vb4tNI5r7O-111" value="Child Process" style="swimlane;fontStyle=0;childLayout=stackLayout;horizontal=1;startSize=30;horizontalStack=0;resizeParent=1;resizeParentMax=0;resizeLast=0;collapsible=1;marginBottom=0;whiteSpace=wrap;html=1;" vertex="1" parent="WIyWlLk6GJQsqaUBKTNV-1">
          <mxGeometry x="140" y="1120" width="110" height="170" as="geometry">
            <mxRectangle x="444" y="170" width="120" height="30" as="alternateBounds" />
          </mxGeometry>
        </mxCell>
        <mxCell id="pGIMNmACJ1Vb4tNI5r7O-112" value="0: fdToGrep[0]" style="text;strokeColor=none;fillColor=none;align=left;verticalAlign=middle;spacingLeft=4;spacingRight=4;overflow=hidden;points=[[0,0.5],[1,0.5]];portConstraint=eastwest;rotatable=0;whiteSpace=wrap;html=1;" vertex="1" parent="pGIMNmACJ1Vb4tNI5r7O-111">
          <mxGeometry y="30" width="110" height="20" as="geometry" />
        </mxCell>
        <mxCell id="pGIMNmACJ1Vb4tNI5r7O-113" value="1: fdToWc[1]" style="text;strokeColor=none;fillColor=none;align=left;verticalAlign=middle;spacingLeft=4;spacingRight=4;overflow=hidden;points=[[0,0.5],[1,0.5]];portConstraint=eastwest;rotatable=0;whiteSpace=wrap;html=1;" vertex="1" parent="pGIMNmACJ1Vb4tNI5r7O-111">
          <mxGeometry y="50" width="110" height="20" as="geometry" />
        </mxCell>
        <mxCell id="pGIMNmACJ1Vb4tNI5r7O-114" value="2: STDERR" style="text;strokeColor=none;fillColor=none;align=left;verticalAlign=middle;spacingLeft=4;spacingRight=4;overflow=hidden;points=[[0,0.5],[1,0.5]];portConstraint=eastwest;rotatable=0;whiteSpace=wrap;html=1;" vertex="1" parent="pGIMNmACJ1Vb4tNI5r7O-111">
          <mxGeometry y="70" width="110" height="20" as="geometry" />
        </mxCell>
        <mxCell id="pGIMNmACJ1Vb4tNI5r7O-115" value="3: fdToGrep[0]" style="text;strokeColor=none;fillColor=none;align=left;verticalAlign=middle;spacingLeft=4;spacingRight=4;overflow=hidden;points=[[0,0.5],[1,0.5]];portConstraint=eastwest;rotatable=0;whiteSpace=wrap;html=1;" vertex="1" parent="pGIMNmACJ1Vb4tNI5r7O-111">
          <mxGeometry y="90" width="110" height="20" as="geometry" />
        </mxCell>
        <mxCell id="pGIMNmACJ1Vb4tNI5r7O-116" value="4: fdToGrep[1]" style="text;strokeColor=none;fillColor=none;align=left;verticalAlign=middle;spacingLeft=4;spacingRight=4;overflow=hidden;points=[[0,0.5],[1,0.5]];portConstraint=eastwest;rotatable=0;whiteSpace=wrap;html=1;" vertex="1" parent="pGIMNmACJ1Vb4tNI5r7O-111">
          <mxGeometry y="110" width="110" height="20" as="geometry" />
        </mxCell>
        <mxCell id="pGIMNmACJ1Vb4tNI5r7O-117" value="5: fdToWc[0]" style="text;strokeColor=none;fillColor=none;align=left;verticalAlign=middle;spacingLeft=4;spacingRight=4;overflow=hidden;points=[[0,0.5],[1,0.5]];portConstraint=eastwest;rotatable=0;whiteSpace=wrap;html=1;" vertex="1" parent="pGIMNmACJ1Vb4tNI5r7O-111">
          <mxGeometry y="130" width="110" height="20" as="geometry" />
        </mxCell>
        <mxCell id="pGIMNmACJ1Vb4tNI5r7O-118" value="6: fdToWc[1]" style="text;strokeColor=none;fillColor=none;align=left;verticalAlign=middle;spacingLeft=4;spacingRight=4;overflow=hidden;points=[[0,0.5],[1,0.5]];portConstraint=eastwest;rotatable=0;whiteSpace=wrap;html=1;" vertex="1" parent="pGIMNmACJ1Vb4tNI5r7O-111">
          <mxGeometry y="150" width="110" height="20" as="geometry" />
        </mxCell>
        <mxCell id="pGIMNmACJ1Vb4tNI5r7O-178" style="edgeStyle=orthogonalEdgeStyle;rounded=0;orthogonalLoop=1;jettySize=auto;html=1;entryX=0.5;entryY=0;entryDx=0;entryDy=0;" edge="1" parent="WIyWlLk6GJQsqaUBKTNV-1" source="pGIMNmACJ1Vb4tNI5r7O-119" target="pGIMNmACJ1Vb4tNI5r7O-175">
          <mxGeometry relative="1" as="geometry" />
        </mxCell>
        <mxCell id="pGIMNmACJ1Vb4tNI5r7O-119" value="&lt;div&gt;Grandchild Process&lt;/div&gt;" style="swimlane;fontStyle=0;childLayout=stackLayout;horizontal=1;startSize=30;horizontalStack=0;resizeParent=1;resizeParentMax=0;resizeLast=0;collapsible=1;marginBottom=0;whiteSpace=wrap;html=1;" vertex="1" parent="WIyWlLk6GJQsqaUBKTNV-1">
          <mxGeometry x="265" y="1120" width="110" height="170" as="geometry">
            <mxRectangle x="444" y="170" width="120" height="30" as="alternateBounds" />
          </mxGeometry>
        </mxCell>
        <mxCell id="pGIMNmACJ1Vb4tNI5r7O-120" value="&lt;div align=&quot;right&quot;&gt;0: STDIN&lt;br&gt;&lt;/div&gt;" style="text;strokeColor=none;fillColor=none;align=left;verticalAlign=middle;spacingLeft=4;spacingRight=4;overflow=hidden;points=[[0,0.5],[1,0.5]];portConstraint=eastwest;rotatable=0;whiteSpace=wrap;html=1;" vertex="1" parent="pGIMNmACJ1Vb4tNI5r7O-119">
          <mxGeometry y="30" width="110" height="20" as="geometry" />
        </mxCell>
        <mxCell id="pGIMNmACJ1Vb4tNI5r7O-121" value="1: fdToGrep[1]" style="text;strokeColor=none;fillColor=none;align=left;verticalAlign=middle;spacingLeft=4;spacingRight=4;overflow=hidden;points=[[0,0.5],[1,0.5]];portConstraint=eastwest;rotatable=0;whiteSpace=wrap;html=1;" vertex="1" parent="pGIMNmACJ1Vb4tNI5r7O-119">
          <mxGeometry y="50" width="110" height="20" as="geometry" />
        </mxCell>
        <mxCell id="pGIMNmACJ1Vb4tNI5r7O-122" value="2: STDERR" style="text;strokeColor=none;fillColor=none;align=left;verticalAlign=middle;spacingLeft=4;spacingRight=4;overflow=hidden;points=[[0,0.5],[1,0.5]];portConstraint=eastwest;rotatable=0;whiteSpace=wrap;html=1;" vertex="1" parent="pGIMNmACJ1Vb4tNI5r7O-119">
          <mxGeometry y="70" width="110" height="20" as="geometry" />
        </mxCell>
        <mxCell id="pGIMNmACJ1Vb4tNI5r7O-123" value="3: fdToGrep[0]" style="text;strokeColor=none;fillColor=none;align=left;verticalAlign=middle;spacingLeft=4;spacingRight=4;overflow=hidden;points=[[0,0.5],[1,0.5]];portConstraint=eastwest;rotatable=0;whiteSpace=wrap;html=1;" vertex="1" parent="pGIMNmACJ1Vb4tNI5r7O-119">
          <mxGeometry y="90" width="110" height="20" as="geometry" />
        </mxCell>
        <mxCell id="pGIMNmACJ1Vb4tNI5r7O-124" value="4: fdToGrep[1]" style="text;strokeColor=none;fillColor=none;align=left;verticalAlign=middle;spacingLeft=4;spacingRight=4;overflow=hidden;points=[[0,0.5],[1,0.5]];portConstraint=eastwest;rotatable=0;whiteSpace=wrap;html=1;" vertex="1" parent="pGIMNmACJ1Vb4tNI5r7O-119">
          <mxGeometry y="110" width="110" height="20" as="geometry" />
        </mxCell>
        <mxCell id="pGIMNmACJ1Vb4tNI5r7O-125" value="5: fdToWc[0]" style="text;strokeColor=none;fillColor=none;align=left;verticalAlign=middle;spacingLeft=4;spacingRight=4;overflow=hidden;points=[[0,0.5],[1,0.5]];portConstraint=eastwest;rotatable=0;whiteSpace=wrap;html=1;" vertex="1" parent="pGIMNmACJ1Vb4tNI5r7O-119">
          <mxGeometry y="130" width="110" height="20" as="geometry" />
        </mxCell>
        <mxCell id="pGIMNmACJ1Vb4tNI5r7O-126" value="6: fdToWc[1]" style="text;strokeColor=none;fillColor=none;align=left;verticalAlign=middle;spacingLeft=4;spacingRight=4;overflow=hidden;points=[[0,0.5],[1,0.5]];portConstraint=eastwest;rotatable=0;whiteSpace=wrap;html=1;" vertex="1" parent="pGIMNmACJ1Vb4tNI5r7O-119">
          <mxGeometry y="150" width="110" height="20" as="geometry" />
        </mxCell>
        <mxCell id="pGIMNmACJ1Vb4tNI5r7O-176" style="edgeStyle=orthogonalEdgeStyle;rounded=0;orthogonalLoop=1;jettySize=auto;html=1;entryX=0.5;entryY=0;entryDx=0;entryDy=0;" edge="1" parent="WIyWlLk6GJQsqaUBKTNV-1" source="pGIMNmACJ1Vb4tNI5r7O-127" target="pGIMNmACJ1Vb4tNI5r7O-171">
          <mxGeometry relative="1" as="geometry" />
        </mxCell>
        <mxCell id="pGIMNmACJ1Vb4tNI5r7O-127" value="Parent Process" style="swimlane;fontStyle=0;childLayout=stackLayout;horizontal=1;startSize=30;horizontalStack=0;resizeParent=1;resizeParentMax=0;resizeLast=0;collapsible=1;marginBottom=0;whiteSpace=wrap;html=1;" vertex="1" parent="WIyWlLk6GJQsqaUBKTNV-1">
          <mxGeometry x="15" y="1120" width="110" height="170" as="geometry">
            <mxRectangle x="444" y="170" width="120" height="30" as="alternateBounds" />
          </mxGeometry>
        </mxCell>
        <mxCell id="pGIMNmACJ1Vb4tNI5r7O-128" value="0: fdToWc[0]" style="text;strokeColor=none;fillColor=none;align=left;verticalAlign=middle;spacingLeft=4;spacingRight=4;overflow=hidden;points=[[0,0.5],[1,0.5]];portConstraint=eastwest;rotatable=0;whiteSpace=wrap;html=1;" vertex="1" parent="pGIMNmACJ1Vb4tNI5r7O-127">
          <mxGeometry y="30" width="110" height="20" as="geometry" />
        </mxCell>
        <mxCell id="pGIMNmACJ1Vb4tNI5r7O-129" value="1: STDOUT" style="text;strokeColor=none;fillColor=none;align=left;verticalAlign=middle;spacingLeft=4;spacingRight=4;overflow=hidden;points=[[0,0.5],[1,0.5]];portConstraint=eastwest;rotatable=0;whiteSpace=wrap;html=1;" vertex="1" parent="pGIMNmACJ1Vb4tNI5r7O-127">
          <mxGeometry y="50" width="110" height="20" as="geometry" />
        </mxCell>
        <mxCell id="pGIMNmACJ1Vb4tNI5r7O-130" value="2: STDERR" style="text;strokeColor=none;fillColor=none;align=left;verticalAlign=middle;spacingLeft=4;spacingRight=4;overflow=hidden;points=[[0,0.5],[1,0.5]];portConstraint=eastwest;rotatable=0;whiteSpace=wrap;html=1;" vertex="1" parent="pGIMNmACJ1Vb4tNI5r7O-127">
          <mxGeometry y="70" width="110" height="20" as="geometry" />
        </mxCell>
        <mxCell id="pGIMNmACJ1Vb4tNI5r7O-131" value="3: fdToGrep[0]" style="text;strokeColor=none;fillColor=none;align=left;verticalAlign=middle;spacingLeft=4;spacingRight=4;overflow=hidden;points=[[0,0.5],[1,0.5]];portConstraint=eastwest;rotatable=0;whiteSpace=wrap;html=1;" vertex="1" parent="pGIMNmACJ1Vb4tNI5r7O-127">
          <mxGeometry y="90" width="110" height="20" as="geometry" />
        </mxCell>
        <mxCell id="pGIMNmACJ1Vb4tNI5r7O-132" value="4: fdToGrep[1]" style="text;strokeColor=none;fillColor=none;align=left;verticalAlign=middle;spacingLeft=4;spacingRight=4;overflow=hidden;points=[[0,0.5],[1,0.5]];portConstraint=eastwest;rotatable=0;whiteSpace=wrap;html=1;" vertex="1" parent="pGIMNmACJ1Vb4tNI5r7O-127">
          <mxGeometry y="110" width="110" height="20" as="geometry" />
        </mxCell>
        <mxCell id="pGIMNmACJ1Vb4tNI5r7O-133" value="5: fdToWc[0]" style="text;strokeColor=none;fillColor=none;align=left;verticalAlign=middle;spacingLeft=4;spacingRight=4;overflow=hidden;points=[[0,0.5],[1,0.5]];portConstraint=eastwest;rotatable=0;whiteSpace=wrap;html=1;" vertex="1" parent="pGIMNmACJ1Vb4tNI5r7O-127">
          <mxGeometry y="130" width="110" height="20" as="geometry" />
        </mxCell>
        <mxCell id="pGIMNmACJ1Vb4tNI5r7O-134" value="6: fdToWc[1]" style="text;strokeColor=none;fillColor=none;align=left;verticalAlign=middle;spacingLeft=4;spacingRight=4;overflow=hidden;points=[[0,0.5],[1,0.5]];portConstraint=eastwest;rotatable=0;whiteSpace=wrap;html=1;" vertex="1" parent="pGIMNmACJ1Vb4tNI5r7O-127">
          <mxGeometry y="150" width="110" height="20" as="geometry" />
        </mxCell>
        <mxCell id="pGIMNmACJ1Vb4tNI5r7O-143" style="edgeStyle=orthogonalEdgeStyle;rounded=0;orthogonalLoop=1;jettySize=auto;html=1;entryX=0.5;entryY=0;entryDx=0;entryDy=0;" edge="1" parent="WIyWlLk6GJQsqaUBKTNV-1" source="pGIMNmACJ1Vb4tNI5r7O-135" target="pGIMNmACJ1Vb4tNI5r7O-127">
          <mxGeometry relative="1" as="geometry" />
        </mxCell>
        <mxCell id="pGIMNmACJ1Vb4tNI5r7O-135" value="1x dup2()" style="rhombus;whiteSpace=wrap;html=1;shadow=0;fontFamily=Helvetica;fontSize=12;align=center;strokeWidth=1;spacing=6;spacingTop=-4;" vertex="1" parent="WIyWlLk6GJQsqaUBKTNV-1">
          <mxGeometry x="20" y="1020" width="100" height="80" as="geometry" />
        </mxCell>
        <mxCell id="pGIMNmACJ1Vb4tNI5r7O-144" style="edgeStyle=orthogonalEdgeStyle;rounded=0;orthogonalLoop=1;jettySize=auto;html=1;entryX=0.5;entryY=0;entryDx=0;entryDy=0;" edge="1" parent="WIyWlLk6GJQsqaUBKTNV-1" source="pGIMNmACJ1Vb4tNI5r7O-137" target="pGIMNmACJ1Vb4tNI5r7O-111">
          <mxGeometry relative="1" as="geometry" />
        </mxCell>
        <mxCell id="pGIMNmACJ1Vb4tNI5r7O-137" value="2x dup2()" style="rhombus;whiteSpace=wrap;html=1;shadow=0;fontFamily=Helvetica;fontSize=12;align=center;strokeWidth=1;spacing=6;spacingTop=-4;" vertex="1" parent="WIyWlLk6GJQsqaUBKTNV-1">
          <mxGeometry x="145" y="1020" width="100" height="80" as="geometry" />
        </mxCell>
        <mxCell id="pGIMNmACJ1Vb4tNI5r7O-145" style="edgeStyle=orthogonalEdgeStyle;rounded=0;orthogonalLoop=1;jettySize=auto;html=1;entryX=0.5;entryY=0;entryDx=0;entryDy=0;" edge="1" parent="WIyWlLk6GJQsqaUBKTNV-1" source="pGIMNmACJ1Vb4tNI5r7O-138" target="pGIMNmACJ1Vb4tNI5r7O-119">
          <mxGeometry relative="1" as="geometry" />
        </mxCell>
        <mxCell id="pGIMNmACJ1Vb4tNI5r7O-138" value="2x dup2()" style="rhombus;whiteSpace=wrap;html=1;shadow=0;fontFamily=Helvetica;fontSize=12;align=center;strokeWidth=1;spacing=6;spacingTop=-4;" vertex="1" parent="WIyWlLk6GJQsqaUBKTNV-1">
          <mxGeometry x="270" y="1020" width="100" height="80" as="geometry" />
        </mxCell>
        <mxCell id="pGIMNmACJ1Vb4tNI5r7O-229" style="edgeStyle=orthogonalEdgeStyle;rounded=0;orthogonalLoop=1;jettySize=auto;html=1;entryX=0.5;entryY=0;entryDx=0;entryDy=0;" edge="1" parent="WIyWlLk6GJQsqaUBKTNV-1" source="pGIMNmACJ1Vb4tNI5r7O-171" target="pGIMNmACJ1Vb4tNI5r7O-221">
          <mxGeometry relative="1" as="geometry" />
        </mxCell>
        <mxCell id="pGIMNmACJ1Vb4tNI5r7O-171" value="4x close()" style="rhombus;whiteSpace=wrap;html=1;shadow=0;fontFamily=Helvetica;fontSize=12;align=center;strokeWidth=1;spacing=6;spacingTop=-4;" vertex="1" parent="WIyWlLk6GJQsqaUBKTNV-1">
          <mxGeometry x="20" y="1310" width="100" height="80" as="geometry" />
        </mxCell>
        <mxCell id="pGIMNmACJ1Vb4tNI5r7O-231" style="edgeStyle=orthogonalEdgeStyle;rounded=0;orthogonalLoop=1;jettySize=auto;html=1;entryX=0.5;entryY=0;entryDx=0;entryDy=0;" edge="1" parent="WIyWlLk6GJQsqaUBKTNV-1" source="pGIMNmACJ1Vb4tNI5r7O-173" target="pGIMNmACJ1Vb4tNI5r7O-203">
          <mxGeometry relative="1" as="geometry" />
        </mxCell>
        <mxCell id="pGIMNmACJ1Vb4tNI5r7O-173" value="4x close()" style="rhombus;whiteSpace=wrap;html=1;shadow=0;fontFamily=Helvetica;fontSize=12;align=center;strokeWidth=1;spacing=6;spacingTop=-4;" vertex="1" parent="WIyWlLk6GJQsqaUBKTNV-1">
          <mxGeometry x="145" y="1310" width="100" height="80" as="geometry" />
        </mxCell>
        <mxCell id="pGIMNmACJ1Vb4tNI5r7O-232" style="edgeStyle=orthogonalEdgeStyle;rounded=0;orthogonalLoop=1;jettySize=auto;html=1;entryX=0.5;entryY=0;entryDx=0;entryDy=0;" edge="1" parent="WIyWlLk6GJQsqaUBKTNV-1" source="pGIMNmACJ1Vb4tNI5r7O-175" target="pGIMNmACJ1Vb4tNI5r7O-212">
          <mxGeometry relative="1" as="geometry" />
        </mxCell>
        <mxCell id="pGIMNmACJ1Vb4tNI5r7O-175" value="4x close()" style="rhombus;whiteSpace=wrap;html=1;shadow=0;fontFamily=Helvetica;fontSize=12;align=center;strokeWidth=1;spacing=6;spacingTop=-4;" vertex="1" parent="WIyWlLk6GJQsqaUBKTNV-1">
          <mxGeometry x="270" y="1310" width="100" height="80" as="geometry" />
        </mxCell>
        <mxCell id="pGIMNmACJ1Vb4tNI5r7O-203" value="Child Process" style="swimlane;fontStyle=0;childLayout=stackLayout;horizontal=1;startSize=30;horizontalStack=0;resizeParent=1;resizeParentMax=0;resizeLast=0;collapsible=1;marginBottom=0;whiteSpace=wrap;html=1;" vertex="1" parent="WIyWlLk6GJQsqaUBKTNV-1">
          <mxGeometry x="140" y="1410" width="110" height="90" as="geometry">
            <mxRectangle x="444" y="170" width="120" height="30" as="alternateBounds" />
          </mxGeometry>
        </mxCell>
        <mxCell id="pGIMNmACJ1Vb4tNI5r7O-204" value="0: fdToGrep[0]" style="text;strokeColor=none;fillColor=none;align=left;verticalAlign=middle;spacingLeft=4;spacingRight=4;overflow=hidden;points=[[0,0.5],[1,0.5]];portConstraint=eastwest;rotatable=0;whiteSpace=wrap;html=1;" vertex="1" parent="pGIMNmACJ1Vb4tNI5r7O-203">
          <mxGeometry y="30" width="110" height="20" as="geometry" />
        </mxCell>
        <mxCell id="pGIMNmACJ1Vb4tNI5r7O-205" value="1: fdToWc[1]" style="text;strokeColor=none;fillColor=none;align=left;verticalAlign=middle;spacingLeft=4;spacingRight=4;overflow=hidden;points=[[0,0.5],[1,0.5]];portConstraint=eastwest;rotatable=0;whiteSpace=wrap;html=1;" vertex="1" parent="pGIMNmACJ1Vb4tNI5r7O-203">
          <mxGeometry y="50" width="110" height="20" as="geometry" />
        </mxCell>
        <mxCell id="pGIMNmACJ1Vb4tNI5r7O-206" value="2: STDERR" style="text;strokeColor=none;fillColor=none;align=left;verticalAlign=middle;spacingLeft=4;spacingRight=4;overflow=hidden;points=[[0,0.5],[1,0.5]];portConstraint=eastwest;rotatable=0;whiteSpace=wrap;html=1;" vertex="1" parent="pGIMNmACJ1Vb4tNI5r7O-203">
          <mxGeometry y="70" width="110" height="20" as="geometry" />
        </mxCell>
        <mxCell id="pGIMNmACJ1Vb4tNI5r7O-260" style="edgeStyle=orthogonalEdgeStyle;rounded=0;orthogonalLoop=1;jettySize=auto;html=1;entryX=0.5;entryY=0;entryDx=0;entryDy=0;" edge="1" parent="WIyWlLk6GJQsqaUBKTNV-1" source="pGIMNmACJ1Vb4tNI5r7O-212" target="pGIMNmACJ1Vb4tNI5r7O-238">
          <mxGeometry relative="1" as="geometry" />
        </mxCell>
        <mxCell id="pGIMNmACJ1Vb4tNI5r7O-212" value="&lt;div&gt;Grandchild Process&lt;/div&gt;" style="swimlane;fontStyle=0;childLayout=stackLayout;horizontal=1;startSize=30;horizontalStack=0;resizeParent=1;resizeParentMax=0;resizeLast=0;collapsible=1;marginBottom=0;whiteSpace=wrap;html=1;" vertex="1" parent="WIyWlLk6GJQsqaUBKTNV-1">
          <mxGeometry x="265" y="1410" width="110" height="90" as="geometry">
            <mxRectangle x="444" y="170" width="120" height="30" as="alternateBounds" />
          </mxGeometry>
        </mxCell>
        <mxCell id="pGIMNmACJ1Vb4tNI5r7O-213" value="&lt;div align=&quot;right&quot;&gt;0: STDIN&lt;br&gt;&lt;/div&gt;" style="text;strokeColor=none;fillColor=none;align=left;verticalAlign=middle;spacingLeft=4;spacingRight=4;overflow=hidden;points=[[0,0.5],[1,0.5]];portConstraint=eastwest;rotatable=0;whiteSpace=wrap;html=1;" vertex="1" parent="pGIMNmACJ1Vb4tNI5r7O-212">
          <mxGeometry y="30" width="110" height="20" as="geometry" />
        </mxCell>
        <mxCell id="pGIMNmACJ1Vb4tNI5r7O-214" value="1: fdToGrep[1]" style="text;strokeColor=none;fillColor=none;align=left;verticalAlign=middle;spacingLeft=4;spacingRight=4;overflow=hidden;points=[[0,0.5],[1,0.5]];portConstraint=eastwest;rotatable=0;whiteSpace=wrap;html=1;" vertex="1" parent="pGIMNmACJ1Vb4tNI5r7O-212">
          <mxGeometry y="50" width="110" height="20" as="geometry" />
        </mxCell>
        <mxCell id="pGIMNmACJ1Vb4tNI5r7O-215" value="2: STDERR" style="text;strokeColor=none;fillColor=none;align=left;verticalAlign=middle;spacingLeft=4;spacingRight=4;overflow=hidden;points=[[0,0.5],[1,0.5]];portConstraint=eastwest;rotatable=0;whiteSpace=wrap;html=1;" vertex="1" parent="pGIMNmACJ1Vb4tNI5r7O-212">
          <mxGeometry y="70" width="110" height="20" as="geometry" />
        </mxCell>
        <mxCell id="pGIMNmACJ1Vb4tNI5r7O-221" value="Parent Process" style="swimlane;fontStyle=0;childLayout=stackLayout;horizontal=1;startSize=30;horizontalStack=0;resizeParent=1;resizeParentMax=0;resizeLast=0;collapsible=1;marginBottom=0;whiteSpace=wrap;html=1;" vertex="1" parent="WIyWlLk6GJQsqaUBKTNV-1">
          <mxGeometry x="15" y="1410" width="110" height="90" as="geometry">
            <mxRectangle x="444" y="170" width="120" height="30" as="alternateBounds" />
          </mxGeometry>
        </mxCell>
        <mxCell id="pGIMNmACJ1Vb4tNI5r7O-222" value="0: fdToWc[0]" style="text;strokeColor=none;fillColor=none;align=left;verticalAlign=middle;spacingLeft=4;spacingRight=4;overflow=hidden;points=[[0,0.5],[1,0.5]];portConstraint=eastwest;rotatable=0;whiteSpace=wrap;html=1;" vertex="1" parent="pGIMNmACJ1Vb4tNI5r7O-221">
          <mxGeometry y="30" width="110" height="20" as="geometry" />
        </mxCell>
        <mxCell id="pGIMNmACJ1Vb4tNI5r7O-223" value="1: STDOUT" style="text;strokeColor=none;fillColor=none;align=left;verticalAlign=middle;spacingLeft=4;spacingRight=4;overflow=hidden;points=[[0,0.5],[1,0.5]];portConstraint=eastwest;rotatable=0;whiteSpace=wrap;html=1;" vertex="1" parent="pGIMNmACJ1Vb4tNI5r7O-221">
          <mxGeometry y="50" width="110" height="20" as="geometry" />
        </mxCell>
        <mxCell id="pGIMNmACJ1Vb4tNI5r7O-224" value="2: STDERR" style="text;strokeColor=none;fillColor=none;align=left;verticalAlign=middle;spacingLeft=4;spacingRight=4;overflow=hidden;points=[[0,0.5],[1,0.5]];portConstraint=eastwest;rotatable=0;whiteSpace=wrap;html=1;" vertex="1" parent="pGIMNmACJ1Vb4tNI5r7O-221">
          <mxGeometry y="70" width="110" height="20" as="geometry" />
        </mxCell>
        <mxCell id="pGIMNmACJ1Vb4tNI5r7O-275" style="edgeStyle=orthogonalEdgeStyle;rounded=0;orthogonalLoop=1;jettySize=auto;html=1;entryX=0.5;entryY=0;entryDx=0;entryDy=0;" edge="1" parent="WIyWlLk6GJQsqaUBKTNV-1" source="pGIMNmACJ1Vb4tNI5r7O-234" target="pGIMNmACJ1Vb4tNI5r7O-266">
          <mxGeometry relative="1" as="geometry" />
        </mxCell>
        <mxCell id="pGIMNmACJ1Vb4tNI5r7O-234" value="wait()" style="rhombus;whiteSpace=wrap;html=1;shadow=0;fontFamily=Helvetica;fontSize=12;align=center;strokeWidth=1;spacing=6;spacingTop=-4;" vertex="1" parent="WIyWlLk6GJQsqaUBKTNV-1">
          <mxGeometry x="20" y="1730" width="100" height="80" as="geometry" />
        </mxCell>
        <mxCell id="pGIMNmACJ1Vb4tNI5r7O-263" style="edgeStyle=orthogonalEdgeStyle;rounded=0;orthogonalLoop=1;jettySize=auto;html=1;entryX=0.5;entryY=0;entryDx=0;entryDy=0;" edge="1" parent="WIyWlLk6GJQsqaUBKTNV-1" source="pGIMNmACJ1Vb4tNI5r7O-236" target="pGIMNmACJ1Vb4tNI5r7O-239">
          <mxGeometry relative="1" as="geometry" />
        </mxCell>
        <mxCell id="pGIMNmACJ1Vb4tNI5r7O-236" value="wait()" style="rhombus;whiteSpace=wrap;html=1;shadow=0;fontFamily=Helvetica;fontSize=12;align=center;strokeWidth=1;spacing=6;spacingTop=-4;" vertex="1" parent="WIyWlLk6GJQsqaUBKTNV-1">
          <mxGeometry x="145" y="1520" width="100" height="80" as="geometry" />
        </mxCell>
        <mxCell id="pGIMNmACJ1Vb4tNI5r7O-257" style="edgeStyle=orthogonalEdgeStyle;rounded=0;orthogonalLoop=1;jettySize=auto;html=1;entryX=1;entryY=0.5;entryDx=0;entryDy=0;" edge="1" parent="WIyWlLk6GJQsqaUBKTNV-1" source="pGIMNmACJ1Vb4tNI5r7O-238" target="pGIMNmACJ1Vb4tNI5r7O-236">
          <mxGeometry relative="1" as="geometry" />
        </mxCell>
        <mxCell id="pGIMNmACJ1Vb4tNI5r7O-259" style="edgeStyle=orthogonalEdgeStyle;rounded=0;orthogonalLoop=1;jettySize=auto;html=1;entryX=1;entryY=0.5;entryDx=0;entryDy=0;" edge="1" parent="WIyWlLk6GJQsqaUBKTNV-1" source="pGIMNmACJ1Vb4tNI5r7O-238" target="pGIMNmACJ1Vb4tNI5r7O-240">
          <mxGeometry relative="1" as="geometry" />
        </mxCell>
        <mxCell id="pGIMNmACJ1Vb4tNI5r7O-238" value="exec(ps)" style="rhombus;whiteSpace=wrap;html=1;shadow=0;fontFamily=Helvetica;fontSize=12;align=center;strokeWidth=1;spacing=6;spacingTop=-4;" vertex="1" parent="WIyWlLk6GJQsqaUBKTNV-1">
          <mxGeometry x="270" y="1520" width="100" height="80" as="geometry" />
        </mxCell>
        <mxCell id="pGIMNmACJ1Vb4tNI5r7O-264" style="edgeStyle=orthogonalEdgeStyle;rounded=0;orthogonalLoop=1;jettySize=auto;html=1;entryX=0.5;entryY=0;entryDx=0;entryDy=0;" edge="1" parent="WIyWlLk6GJQsqaUBKTNV-1" source="pGIMNmACJ1Vb4tNI5r7O-239" target="pGIMNmACJ1Vb4tNI5r7O-254">
          <mxGeometry relative="1" as="geometry" />
        </mxCell>
        <mxCell id="pGIMNmACJ1Vb4tNI5r7O-239" value="Child Process" style="swimlane;fontStyle=0;childLayout=stackLayout;horizontal=1;startSize=30;horizontalStack=0;resizeParent=1;resizeParentMax=0;resizeLast=0;collapsible=1;marginBottom=0;whiteSpace=wrap;html=1;" vertex="1" parent="WIyWlLk6GJQsqaUBKTNV-1">
          <mxGeometry x="140" y="1620" width="110" height="90" as="geometry">
            <mxRectangle x="444" y="170" width="120" height="30" as="alternateBounds" />
          </mxGeometry>
        </mxCell>
        <mxCell id="pGIMNmACJ1Vb4tNI5r7O-240" value="0: fdToGrep[0]" style="text;strokeColor=none;fillColor=none;align=left;verticalAlign=middle;spacingLeft=4;spacingRight=4;overflow=hidden;points=[[0,0.5],[1,0.5]];portConstraint=eastwest;rotatable=0;whiteSpace=wrap;html=1;" vertex="1" parent="pGIMNmACJ1Vb4tNI5r7O-239">
          <mxGeometry y="30" width="110" height="20" as="geometry" />
        </mxCell>
        <mxCell id="pGIMNmACJ1Vb4tNI5r7O-241" value="1: fdToWc[1]" style="text;strokeColor=none;fillColor=none;align=left;verticalAlign=middle;spacingLeft=4;spacingRight=4;overflow=hidden;points=[[0,0.5],[1,0.5]];portConstraint=eastwest;rotatable=0;whiteSpace=wrap;html=1;" vertex="1" parent="pGIMNmACJ1Vb4tNI5r7O-239">
          <mxGeometry y="50" width="110" height="20" as="geometry" />
        </mxCell>
        <mxCell id="pGIMNmACJ1Vb4tNI5r7O-242" value="2: STDERR" style="text;strokeColor=none;fillColor=none;align=left;verticalAlign=middle;spacingLeft=4;spacingRight=4;overflow=hidden;points=[[0,0.5],[1,0.5]];portConstraint=eastwest;rotatable=0;whiteSpace=wrap;html=1;" vertex="1" parent="pGIMNmACJ1Vb4tNI5r7O-239">
          <mxGeometry y="70" width="110" height="20" as="geometry" />
        </mxCell>
        <mxCell id="pGIMNmACJ1Vb4tNI5r7O-273" style="edgeStyle=orthogonalEdgeStyle;rounded=0;orthogonalLoop=1;jettySize=auto;html=1;entryX=1;entryY=0.5;entryDx=0;entryDy=0;" edge="1" parent="WIyWlLk6GJQsqaUBKTNV-1" source="pGIMNmACJ1Vb4tNI5r7O-254" target="pGIMNmACJ1Vb4tNI5r7O-234">
          <mxGeometry relative="1" as="geometry" />
        </mxCell>
        <mxCell id="pGIMNmACJ1Vb4tNI5r7O-274" style="edgeStyle=orthogonalEdgeStyle;rounded=0;orthogonalLoop=1;jettySize=auto;html=1;entryX=1;entryY=0.5;entryDx=0;entryDy=0;" edge="1" parent="WIyWlLk6GJQsqaUBKTNV-1" source="pGIMNmACJ1Vb4tNI5r7O-254" target="pGIMNmACJ1Vb4tNI5r7O-267">
          <mxGeometry relative="1" as="geometry" />
        </mxCell>
        <mxCell id="pGIMNmACJ1Vb4tNI5r7O-254" value="exec(grep)" style="rhombus;whiteSpace=wrap;html=1;shadow=0;fontFamily=Helvetica;fontSize=12;align=center;strokeWidth=1;spacing=6;spacingTop=-4;" vertex="1" parent="WIyWlLk6GJQsqaUBKTNV-1">
          <mxGeometry x="145" y="1730" width="100" height="80" as="geometry" />
        </mxCell>
        <mxCell id="pGIMNmACJ1Vb4tNI5r7O-261" value="" style="endArrow=none;dashed=1;html=1;rounded=0;entryX=0.5;entryY=0;entryDx=0;entryDy=0;" edge="1" parent="WIyWlLk6GJQsqaUBKTNV-1" source="pGIMNmACJ1Vb4tNI5r7O-206" target="pGIMNmACJ1Vb4tNI5r7O-236">
          <mxGeometry width="50" height="50" relative="1" as="geometry">
            <mxPoint x="190" y="1670" as="sourcePoint" />
            <mxPoint x="240" y="1620" as="targetPoint" />
          </mxGeometry>
        </mxCell>
        <mxCell id="pGIMNmACJ1Vb4tNI5r7O-262" value="" style="endArrow=none;dashed=1;html=1;rounded=0;exitX=0.5;exitY=0;exitDx=0;exitDy=0;" edge="1" parent="WIyWlLk6GJQsqaUBKTNV-1" source="pGIMNmACJ1Vb4tNI5r7O-234" target="pGIMNmACJ1Vb4tNI5r7O-224">
          <mxGeometry width="50" height="50" relative="1" as="geometry">
            <mxPoint x="205" y="1510" as="sourcePoint" />
            <mxPoint x="205" y="1530" as="targetPoint" />
          </mxGeometry>
        </mxCell>
        <mxCell id="pGIMNmACJ1Vb4tNI5r7O-276" style="edgeStyle=orthogonalEdgeStyle;rounded=0;orthogonalLoop=1;jettySize=auto;html=1;entryX=0.5;entryY=0;entryDx=0;entryDy=0;" edge="1" parent="WIyWlLk6GJQsqaUBKTNV-1" source="pGIMNmACJ1Vb4tNI5r7O-266" target="pGIMNmACJ1Vb4tNI5r7O-270">
          <mxGeometry relative="1" as="geometry" />
        </mxCell>
        <mxCell id="pGIMNmACJ1Vb4tNI5r7O-266" value="Parent Process" style="swimlane;fontStyle=0;childLayout=stackLayout;horizontal=1;startSize=30;horizontalStack=0;resizeParent=1;resizeParentMax=0;resizeLast=0;collapsible=1;marginBottom=0;whiteSpace=wrap;html=1;" vertex="1" parent="WIyWlLk6GJQsqaUBKTNV-1">
          <mxGeometry x="15" y="1830" width="110" height="90" as="geometry">
            <mxRectangle x="444" y="170" width="120" height="30" as="alternateBounds" />
          </mxGeometry>
        </mxCell>
        <mxCell id="pGIMNmACJ1Vb4tNI5r7O-267" value="0: fdToWc[0]" style="text;strokeColor=none;fillColor=none;align=left;verticalAlign=middle;spacingLeft=4;spacingRight=4;overflow=hidden;points=[[0,0.5],[1,0.5]];portConstraint=eastwest;rotatable=0;whiteSpace=wrap;html=1;" vertex="1" parent="pGIMNmACJ1Vb4tNI5r7O-266">
          <mxGeometry y="30" width="110" height="20" as="geometry" />
        </mxCell>
        <mxCell id="pGIMNmACJ1Vb4tNI5r7O-268" value="1: STDOUT" style="text;strokeColor=none;fillColor=none;align=left;verticalAlign=middle;spacingLeft=4;spacingRight=4;overflow=hidden;points=[[0,0.5],[1,0.5]];portConstraint=eastwest;rotatable=0;whiteSpace=wrap;html=1;" vertex="1" parent="pGIMNmACJ1Vb4tNI5r7O-266">
          <mxGeometry y="50" width="110" height="20" as="geometry" />
        </mxCell>
        <mxCell id="pGIMNmACJ1Vb4tNI5r7O-269" value="2: STDERR" style="text;strokeColor=none;fillColor=none;align=left;verticalAlign=middle;spacingLeft=4;spacingRight=4;overflow=hidden;points=[[0,0.5],[1,0.5]];portConstraint=eastwest;rotatable=0;whiteSpace=wrap;html=1;" vertex="1" parent="pGIMNmACJ1Vb4tNI5r7O-266">
          <mxGeometry y="70" width="110" height="20" as="geometry" />
        </mxCell>
        <mxCell id="pGIMNmACJ1Vb4tNI5r7O-271" style="edgeStyle=orthogonalEdgeStyle;rounded=0;orthogonalLoop=1;jettySize=auto;html=1;" edge="1" parent="WIyWlLk6GJQsqaUBKTNV-1" source="pGIMNmACJ1Vb4tNI5r7O-270">
          <mxGeometry relative="1" as="geometry">
            <mxPoint x="70" y="2050" as="targetPoint" />
          </mxGeometry>
        </mxCell>
        <mxCell id="pGIMNmACJ1Vb4tNI5r7O-270" value="exec(wc)" style="rhombus;whiteSpace=wrap;html=1;shadow=0;fontFamily=Helvetica;fontSize=12;align=center;strokeWidth=1;spacing=6;spacingTop=-4;" vertex="1" parent="WIyWlLk6GJQsqaUBKTNV-1">
          <mxGeometry x="20" y="1950" width="100" height="80" as="geometry" />
        </mxCell>
        <mxCell id="pGIMNmACJ1Vb4tNI5r7O-272" value="1: STDOUT" style="text;strokeColor=none;fillColor=none;align=left;verticalAlign=middle;spacingLeft=4;spacingRight=4;overflow=hidden;points=[[0,0.5],[1,0.5]];portConstraint=eastwest;rotatable=0;whiteSpace=wrap;html=1;" vertex="1" parent="WIyWlLk6GJQsqaUBKTNV-1">
          <mxGeometry x="20" y="2060" width="110" height="20" as="geometry" />
        </mxCell>
      </root>
    </mxGraphModel>
  </diagram>
</mxfile>
